<svg width="25" height="27" viewBox="0 0 25 27" fill="none" xmlns="http://www.w3.org/2000/svg">
<path d="M16.9805 22.2031L16.3125 26H3.79688L4.46484 22.2031H16.9805ZM9.70312 0.40625L5.25586 26H0.527344L4.95703 0.40625H9.70312Z" fill="white"/>
<path d="M19.6699 23.8027C19.6582 23.0645 19.9043 22.4492 20.4082 21.957C20.9121 21.4648 21.5332 21.2188 22.2715 21.2188C22.9863 21.207 23.5898 21.4297 24.082 21.8867C24.5859 22.332 24.8438 22.918 24.8555 23.6445C24.8672 24.3945 24.6152 25.0098 24.0996 25.4902C23.5957 25.9707 22.9805 26.2109 22.2539 26.2109C21.5508 26.2227 20.9414 26.0059 20.4258 25.5605C19.9219 25.1152 19.6699 24.5293 19.6699 23.8027Z" fill="#9466FF"/>
</svg>
